/* XPM */
static char * 2_xpm[] = {
"16 16 3 1",
" 	c None",
".	c #00729b",
"+	c #FFC400",
"                ",
"       ..       ",
"    ........    ",
"    .      .    ",
"    .      .    ",
"    .      .    ",
"    .      .    ",
"    .      .    ",
"    .      .    ",
"    .      .    ",
"    .      .    ",
"    .      .    ",
"    .++++++.    ",
"    .++++++.    ",
"     ......     ",
"                "};
