/* XPM */
static char * 7_xpm[] = {
"16 16 3 1",
" 	c None",
".	c #00729b",
"+	c #00729b",
"                ",
"                ",
"    . .  . .    ",
"     ......     ",
"  . ..    .. .  ",
"   ..++++++..   ",
"  ..++++++++.   ",
"   .++++++++..  ",
"   .++++++++.   ",
"  ..++++++++..  ",
"   ..++++++..   ",
"  . ..++++.. .  ",
"     ......     ",
"    . .  . .    ",
"                ",
"                "};
