/* XPM */
static char * 5_xpm[] = {
"16 16 4 1",
" 	c None",
".	c #00729b",
"+	c #B30000",
"@	c #E6E6E6",
"                ",
"       ..       ",
"    ........    ",
"    .      .    ",
"    .      .    ",
"    .   +  .    ",
"    .   +  .    ",
"    .@@++@@.    ",
"    .@++++@.    ",
"    .@@++@@.    ",
"    .@@+@@@.    ",
"    .@@+@@@.    ",
"    .@@@@@@.    ",
"    .@@@@@@.    ",
"     ......     ",
"                "};
